<mxfile host="app.diagrams.net" agent="Mozilla/5.0 (Windows NT 10.0; Win64; x64) AppleWebKit/537.36 (KHTML, like Gecko) Chrome/136.0.0.0 Safari/537.36" version="27.1.1">
  <diagram name="Trang-1" id="63mx5W4l-UKpmu3PDCAu">
    <mxGraphModel dx="791" dy="1237" grid="1" gridSize="10" guides="1" tooltips="1" connect="1" arrows="1" fold="1" page="0" pageScale="1" pageWidth="827" pageHeight="1169" math="0" shadow="0">
      <root>
        <mxCell id="0" />
        <mxCell id="1" parent="0" />
        <mxCell id="JvksxqMe7l_VGRc2pajA-40" value="" style="rounded=1;whiteSpace=wrap;html=1;fillColor=none;dashed=1;container=0;movable=1;resizable=1;rotatable=1;deletable=1;editable=1;locked=0;connectable=1;" parent="1" vertex="1">
          <mxGeometry x="360" y="-5" width="370" height="380" as="geometry" />
        </mxCell>
        <mxCell id="JvksxqMe7l_VGRc2pajA-37" value="" style="rounded=1;whiteSpace=wrap;html=1;fillColor=none;dashed=1;movable=1;resizable=1;rotatable=1;deletable=1;editable=1;locked=0;connectable=1;" parent="1" vertex="1">
          <mxGeometry x="-170" y="20" width="470" height="360" as="geometry" />
        </mxCell>
        <mxCell id="JvksxqMe7l_VGRc2pajA-34" style="edgeStyle=orthogonalEdgeStyle;rounded=0;orthogonalLoop=1;jettySize=auto;html=1;entryX=0;entryY=0.75;entryDx=0;entryDy=0;" parent="1" source="JvksxqMe7l_VGRc2pajA-3" target="JvksxqMe7l_VGRc2pajA-23" edge="1">
          <mxGeometry relative="1" as="geometry" />
        </mxCell>
        <mxCell id="JvksxqMe7l_VGRc2pajA-35" style="edgeStyle=orthogonalEdgeStyle;rounded=0;orthogonalLoop=1;jettySize=auto;html=1;entryX=-0.009;entryY=0.647;entryDx=0;entryDy=0;entryPerimeter=0;" parent="1" source="JvksxqMe7l_VGRc2pajA-3" target="JvksxqMe7l_VGRc2pajA-32" edge="1">
          <mxGeometry relative="1" as="geometry" />
        </mxCell>
        <mxCell id="JvksxqMe7l_VGRc2pajA-36" style="edgeStyle=orthogonalEdgeStyle;rounded=0;orthogonalLoop=1;jettySize=auto;html=1;" parent="1" source="JvksxqMe7l_VGRc2pajA-7" target="JvksxqMe7l_VGRc2pajA-27" edge="1">
          <mxGeometry relative="1" as="geometry">
            <mxPoint x="480" y="305" as="targetPoint" />
            <Array as="points">
              <mxPoint x="430" y="305" />
              <mxPoint x="430" y="305" />
            </Array>
          </mxGeometry>
        </mxCell>
        <mxCell id="JvksxqMe7l_VGRc2pajA-23" value="erp_loc_a101" style="swimlane;fontStyle=0;childLayout=stackLayout;horizontal=1;startSize=30;horizontalStack=0;resizeParent=1;resizeParentMax=0;resizeLast=0;collapsible=1;marginBottom=0;whiteSpace=wrap;html=1;rounded=0;fillColor=#fff2cc;strokeColor=#d6b656;container=0;" parent="1" vertex="1">
          <mxGeometry x="485" y="36.84" width="145" height="50" as="geometry" />
        </mxCell>
        <mxCell id="JvksxqMe7l_VGRc2pajA-25" value="Locations of Customers (Country)" style="text;html=1;align=center;verticalAlign=middle;whiteSpace=wrap;rounded=0;fontSize=11;container=0;" parent="1" vertex="1">
          <mxGeometry x="470" y="19.999999999999996" width="170" height="21.05" as="geometry" />
        </mxCell>
        <mxCell id="JvksxqMe7l_VGRc2pajA-24" value="cid" style="text;align=left;verticalAlign=middle;spacingLeft=4;spacingRight=4;overflow=hidden;points=[[0,0.5],[1,0.5]];portConstraint=eastwest;rotatable=0;html=1;spacingTop=0;spacing=2;spacingBottom=0;whiteSpace=wrap;container=0;" parent="1" vertex="1">
          <mxGeometry x="485" y="66.84" width="145" height="20" as="geometry" />
        </mxCell>
        <mxCell id="JvksxqMe7l_VGRc2pajA-27" value="erp_px_cat_g1v2" style="swimlane;fontStyle=0;childLayout=stackLayout;horizontal=1;startSize=30;horizontalStack=0;resizeParent=1;resizeParentMax=0;resizeLast=0;collapsible=1;marginBottom=0;whiteSpace=wrap;html=1;rounded=0;fillColor=#fff2cc;strokeColor=#d6b656;container=0;" parent="1" vertex="1">
          <mxGeometry x="490" y="294" width="150" height="50" as="geometry" />
        </mxCell>
        <mxCell id="JvksxqMe7l_VGRc2pajA-29" value="Extra Customer Information (Birthdate)" style="text;html=1;align=center;verticalAlign=middle;whiteSpace=wrap;rounded=0;fontSize=11;container=0;" parent="1" vertex="1">
          <mxGeometry x="460" y="270" width="210" height="30" as="geometry" />
        </mxCell>
        <mxCell id="JvksxqMe7l_VGRc2pajA-28" value="id&lt;div&gt;&lt;br/&gt;&lt;/div&gt;" style="text;align=left;verticalAlign=middle;spacingLeft=4;spacingRight=4;overflow=hidden;points=[[0,0.5],[1,0.5]];portConstraint=eastwest;rotatable=0;html=1;spacingTop=0;spacing=2;spacingBottom=0;whiteSpace=wrap;container=0;" parent="1" vertex="1">
          <mxGeometry x="495" y="324" width="140" height="20" as="geometry" />
        </mxCell>
        <mxCell id="JvksxqMe7l_VGRc2pajA-31" value="erp_cust_az12" style="swimlane;fontStyle=0;childLayout=stackLayout;horizontal=1;startSize=30;horizontalStack=0;resizeParent=1;resizeParentMax=0;resizeLast=0;collapsible=1;marginBottom=0;whiteSpace=wrap;html=1;rounded=0;fillColor=#fff2cc;strokeColor=#d6b656;container=0;" parent="1" vertex="1">
          <mxGeometry x="485" y="142.01" width="145" height="48.34" as="geometry" />
        </mxCell>
        <mxCell id="JvksxqMe7l_VGRc2pajA-33" value="Product Catagories" style="text;html=1;align=center;verticalAlign=middle;whiteSpace=wrap;rounded=0;fontSize=11;container=0;" parent="1" vertex="1">
          <mxGeometry x="450" y="120" width="210" height="27.51" as="geometry" />
        </mxCell>
        <mxCell id="JvksxqMe7l_VGRc2pajA-42" value="&lt;b&gt;&lt;font style=&quot;font-size: 24px;&quot;&gt;ERP&lt;/font&gt;&lt;/b&gt;" style="text;html=1;align=center;verticalAlign=middle;whiteSpace=wrap;rounded=1;fillColor=#fff2cc;strokeColor=#d6b656;container=0;" parent="1" vertex="1">
          <mxGeometry x="487.5" y="-40" width="115" height="50" as="geometry" />
        </mxCell>
        <mxCell id="JvksxqMe7l_VGRc2pajA-32" value="cid" style="text;align=left;verticalAlign=middle;spacingLeft=4;spacingRight=4;overflow=hidden;points=[[0,0.5],[1,0.5]];portConstraint=eastwest;rotatable=0;html=1;spacingTop=0;spacing=2;spacingBottom=0;whiteSpace=wrap;container=0;" parent="1" vertex="1">
          <mxGeometry x="485" y="172.01052631578946" width="140" height="18.342105263157897" as="geometry" />
        </mxCell>
        <mxCell id="u_Sg_WFGpddc6cjGTR1E-2" value="PRODUCT" style="text;html=1;strokeColor=#b85450;fillColor=#f8cecc;align=center;verticalAlign=middle;whiteSpace=wrap;overflow=hidden;fontStyle=1" vertex="1" parent="1">
          <mxGeometry x="490" y="344" width="150" height="20" as="geometry" />
        </mxCell>
        <mxCell id="JvksxqMe7l_VGRc2pajA-16" style="edgeStyle=orthogonalEdgeStyle;rounded=0;orthogonalLoop=1;jettySize=auto;html=1;exitX=1;exitY=0.5;exitDx=0;exitDy=0;entryX=0;entryY=0.5;entryDx=0;entryDy=0;" parent="1" source="JvksxqMe7l_VGRc2pajA-12" target="JvksxqMe7l_VGRc2pajA-7" edge="1">
          <mxGeometry relative="1" as="geometry">
            <Array as="points">
              <mxPoint y="220" />
              <mxPoint x="57" y="220" />
              <mxPoint x="57" y="305" />
            </Array>
          </mxGeometry>
        </mxCell>
        <mxCell id="JvksxqMe7l_VGRc2pajA-17" value="" style="group" parent="1" vertex="1" connectable="0">
          <mxGeometry x="72.5" y="230" width="225" height="90" as="geometry" />
        </mxCell>
        <mxCell id="JvksxqMe7l_VGRc2pajA-6" value="crm_prd_info" style="swimlane;fontStyle=0;childLayout=stackLayout;horizontal=1;startSize=30;horizontalStack=0;resizeParent=1;resizeParentMax=0;resizeLast=0;collapsible=1;marginBottom=0;whiteSpace=wrap;html=1;rounded=0;fillColor=#d5e8d4;strokeColor=#82b366;" parent="JvksxqMe7l_VGRc2pajA-17" vertex="1">
          <mxGeometry x="47.5" y="30" width="140" height="60" as="geometry" />
        </mxCell>
        <mxCell id="JvksxqMe7l_VGRc2pajA-7" value="prd_key" style="text;align=left;verticalAlign=middle;spacingLeft=4;spacingRight=4;overflow=hidden;points=[[0,0.5],[1,0.5]];portConstraint=eastwest;rotatable=0;whiteSpace=wrap;html=1;" parent="JvksxqMe7l_VGRc2pajA-6" vertex="1">
          <mxGeometry y="30" width="140" height="30" as="geometry" />
        </mxCell>
        <mxCell id="JvksxqMe7l_VGRc2pajA-10" value="Current &amp;amp; History Product Information" style="text;html=1;align=center;verticalAlign=middle;whiteSpace=wrap;rounded=0;fontSize=11;" parent="JvksxqMe7l_VGRc2pajA-17" vertex="1">
          <mxGeometry width="225" height="30" as="geometry" />
        </mxCell>
        <mxCell id="JvksxqMe7l_VGRc2pajA-19" value="" style="group" parent="1" vertex="1" connectable="0">
          <mxGeometry x="110" y="46" width="150" height="114" as="geometry" />
        </mxCell>
        <mxCell id="JvksxqMe7l_VGRc2pajA-2" value="crm_cust_info" style="swimlane;fontStyle=0;childLayout=stackLayout;horizontal=1;startSize=30;horizontalStack=0;resizeParent=1;resizeParentMax=0;resizeLast=0;collapsible=1;marginBottom=0;whiteSpace=wrap;html=1;rounded=0;fillColor=#d5e8d4;strokeColor=#82b366;" parent="JvksxqMe7l_VGRc2pajA-19" vertex="1">
          <mxGeometry y="24" width="150" height="70" as="geometry" />
        </mxCell>
        <mxCell id="JvksxqMe7l_VGRc2pajA-3" value="cst_id&#xa;cst_key" style="text;align=left;verticalAlign=middle;spacingLeft=4;spacingRight=4;overflow=hidden;points=[[0,0.5],[1,0.5]];portConstraint=eastwest;rotatable=0;html=1;spacingTop=0;spacing=2;spacingBottom=0;whiteSpace=wrap;" parent="JvksxqMe7l_VGRc2pajA-2" vertex="1">
          <mxGeometry y="30" width="150" height="40" as="geometry" />
        </mxCell>
        <mxCell id="JvksxqMe7l_VGRc2pajA-9" value="Customer information" style="text;html=1;align=center;verticalAlign=middle;whiteSpace=wrap;rounded=0;fontSize=11;" parent="JvksxqMe7l_VGRc2pajA-19" vertex="1">
          <mxGeometry width="150" height="30" as="geometry" />
        </mxCell>
        <mxCell id="JvksxqMe7l_VGRc2pajA-20" value="" style="group" parent="1" vertex="1" connectable="0">
          <mxGeometry x="-145" y="125.44999999999999" width="150" height="104.55" as="geometry" />
        </mxCell>
        <mxCell id="JvksxqMe7l_VGRc2pajA-13" value="Transactional Records about Sales &amp;amp; Orders" style="text;html=1;align=center;verticalAlign=middle;whiteSpace=wrap;rounded=0;fontSize=11;container=0;" parent="JvksxqMe7l_VGRc2pajA-20" vertex="1">
          <mxGeometry width="150" height="34.84861711836832" as="geometry" />
        </mxCell>
        <mxCell id="JvksxqMe7l_VGRc2pajA-15" value="" style="group" parent="JvksxqMe7l_VGRc2pajA-20" vertex="1" connectable="0">
          <mxGeometry x="5" y="34.85276576326335" width="140" height="69.69723423673665" as="geometry" />
        </mxCell>
        <mxCell id="JvksxqMe7l_VGRc2pajA-11" value="crm_cust_info" style="swimlane;fontStyle=0;childLayout=stackLayout;horizontal=1;startSize=30;horizontalStack=0;resizeParent=1;resizeParentMax=0;resizeLast=0;collapsible=1;marginBottom=0;whiteSpace=wrap;html=1;rounded=0;fillColor=#d5e8d4;strokeColor=#82b366;container=0;" parent="JvksxqMe7l_VGRc2pajA-15" vertex="1">
          <mxGeometry width="140" height="69.69723423673663" as="geometry" />
        </mxCell>
        <mxCell id="JvksxqMe7l_VGRc2pajA-12" value="&lt;div style=&quot;line-height: 130%;&quot;&gt;prd_key&lt;div&gt;cst_id&lt;/div&gt;&lt;/div&gt;" style="text;align=left;verticalAlign=middle;spacingLeft=4;spacingRight=4;overflow=hidden;points=[[0,0.5],[1,0.5]];portConstraint=eastwest;rotatable=0;whiteSpace=wrap;html=1;container=0;" parent="JvksxqMe7l_VGRc2pajA-15" vertex="1">
          <mxGeometry y="22.236736637435033" width="140" height="47.46049759930162" as="geometry" />
        </mxCell>
        <mxCell id="JvksxqMe7l_VGRc2pajA-21" style="edgeStyle=orthogonalEdgeStyle;rounded=0;orthogonalLoop=1;jettySize=auto;html=1;exitX=1;exitY=0.5;exitDx=0;exitDy=0;entryX=0.001;entryY=0.36;entryDx=0;entryDy=0;entryPerimeter=0;" parent="1" source="JvksxqMe7l_VGRc2pajA-12" target="JvksxqMe7l_VGRc2pajA-3" edge="1">
          <mxGeometry relative="1" as="geometry">
            <mxPoint x="110" y="115" as="targetPoint" />
            <Array as="points">
              <mxPoint y="190" />
              <mxPoint x="57" y="190" />
              <mxPoint x="57" y="114" />
            </Array>
          </mxGeometry>
        </mxCell>
        <mxCell id="JvksxqMe7l_VGRc2pajA-38" value="&lt;b&gt;&lt;font style=&quot;font-size: 24px;&quot;&gt;CRM&lt;/font&gt;&lt;/b&gt;" style="text;html=1;align=center;verticalAlign=middle;whiteSpace=wrap;rounded=1;fillColor=#d5e8d4;strokeColor=#82b366;" parent="1" vertex="1">
          <mxGeometry x="5" y="-10" width="115" height="50" as="geometry" />
        </mxCell>
        <mxCell id="u_Sg_WFGpddc6cjGTR1E-1" value="PRODUCT" style="text;html=1;strokeColor=#b85450;fillColor=#f8cecc;align=center;verticalAlign=middle;whiteSpace=wrap;overflow=hidden;fontStyle=1" vertex="1" parent="1">
          <mxGeometry x="120" y="320" width="140" height="20" as="geometry" />
        </mxCell>
        <mxCell id="u_Sg_WFGpddc6cjGTR1E-3" value="CUSTOMER" style="text;html=1;strokeColor=#6c8ebf;fillColor=#dae8fc;align=center;verticalAlign=middle;whiteSpace=wrap;overflow=hidden;fontStyle=1" vertex="1" parent="1">
          <mxGeometry x="110" y="140" width="150" height="20" as="geometry" />
        </mxCell>
        <mxCell id="u_Sg_WFGpddc6cjGTR1E-4" value="CUSTOMER" style="text;html=1;strokeColor=#6c8ebf;fillColor=#dae8fc;align=center;verticalAlign=middle;whiteSpace=wrap;overflow=hidden;fontStyle=1" vertex="1" parent="1">
          <mxGeometry x="485" y="190.35" width="145" height="20" as="geometry" />
        </mxCell>
        <mxCell id="u_Sg_WFGpddc6cjGTR1E-5" value="CUSTOMER" style="text;html=1;strokeColor=#6c8ebf;fillColor=#dae8fc;align=center;verticalAlign=middle;whiteSpace=wrap;overflow=hidden;fontStyle=1" vertex="1" parent="1">
          <mxGeometry x="485" y="86.84" width="145" height="20" as="geometry" />
        </mxCell>
        <mxCell id="u_Sg_WFGpddc6cjGTR1E-6" value="SALE" style="text;html=1;strokeColor=#9673a6;fillColor=#e1d5e7;align=center;verticalAlign=middle;whiteSpace=wrap;overflow=hidden;fontStyle=1" vertex="1" parent="1">
          <mxGeometry x="-140" y="230" width="140" height="20" as="geometry" />
        </mxCell>
      </root>
    </mxGraphModel>
  </diagram>
</mxfile>
